<svg xmlns="http://www.w3.org/2000/svg" xmlns:xlink="http://www.w3.org/1999/xlink" viewBox="0 0 264.53 81.7"><defs><style>.cls-1,.cls-10,.cls-11,.cls-12,.cls-2,.cls-3,.cls-4,.cls-5,.cls-6,.cls-7,.cls-8,.cls-9{stroke:#008ad7;stroke-miterlimit:10;}.cls-1,.cls-3{stroke-width:0;}.cls-1{fill:url(#linear-gradient);}.cls-2{fill-rule:evenodd;fill:url(#linear-gradient-2);}.cls-3{fill:url(#linear-gradient-3);}.cls-4{fill:url(#linear-gradient-4);}.cls-5{fill:url(#linear-gradient-5);}.cls-10,.cls-11,.cls-12,.cls-6,.cls-7,.cls-8,.cls-9{stroke-width:1.5px;}.cls-6{fill:url(#linear-gradient-6);}.cls-7{fill:url(#linear-gradient-7);}.cls-8{fill:url(#linear-gradient-8);}.cls-9{fill:url(#linear-gradient-9);}.cls-10{fill:url(#linear-gradient-10);}.cls-11{fill:url(#linear-gradient-11);}.cls-12{fill:url(#linear-gradient-12);}</style><linearGradient id="linear-gradient" x1="27.42" y1="32.67" x2="36.31" y2="32.67" gradientUnits="userSpaceOnUse"><stop offset="0" stop-color="#fabc05"/><stop offset="0.49" stop-color="#ea4335"/><stop offset="1" stop-color="#4284f3"/></linearGradient><linearGradient id="linear-gradient-2" x1="0.5" y1="40.85" x2="82.02" y2="40.85" xlink:href="#linear-gradient"/><linearGradient id="linear-gradient-3" x1="46.34" y1="32.67" x2="55.22" y2="32.67" xlink:href="#linear-gradient"/><linearGradient id="linear-gradient-4" x1="37.83" y1="45.72" x2="44.73" y2="45.72" xlink:href="#linear-gradient"/><linearGradient id="linear-gradient-5" x1="33.44" y1="59.11" x2="49.11" y2="59.11" xlink:href="#linear-gradient"/><linearGradient id="linear-gradient-6" x1="82.56" y1="40.85" x2="108.74" y2="40.85" gradientUnits="userSpaceOnUse"><stop offset="0" stop-color="#fabc05"/><stop offset="1" stop-color="#f9b807"/><stop offset="1" stop-color="#ea4335"/><stop offset="1" stop-color="#4284f3"/></linearGradient><linearGradient id="linear-gradient-7" x1="111.06" y1="40.85" x2="135.38" y2="40.85" xlink:href="#linear-gradient-6"/><linearGradient id="linear-gradient-8" x1="137.7" y1="40.85" x2="159.09" y2="40.85" xlink:href="#linear-gradient-6"/><linearGradient id="linear-gradient-9" x1="172.42" y1="40.85" x2="194.64" y2="40.85" xlink:href="#linear-gradient-6"/><linearGradient id="linear-gradient-10" x1="197.88" y1="40.85" x2="222.88" y2="40.85" xlink:href="#linear-gradient-6"/><linearGradient id="linear-gradient-11" x1="223.96" y1="40.85" x2="248.28" y2="40.85" xlink:href="#linear-gradient-6"/><linearGradient id="linear-gradient-12" x1="245.46" y1="40.85" x2="263.78" y2="40.85" xlink:href="#linear-gradient-6"/></defs><g id="Layer_2" data-name="Layer 2"><g id="Layer_1-2" data-name="Layer 1"><path class="cls-1" d="M32,28.11c.18,0,.32-.11.32-.22s-.15-.19-.34-.19h-.06a4.57,4.57,0,0,0-2.2.73,4.92,4.92,0,0,0-2.25,4.09,5,5,0,0,0,2.12,4.23,4.88,4.88,0,0,0,2.25.85,6.12,6.12,0,0,0,1.21,0,3.53,3.53,0,0,0,1.19-.38,3.78,3.78,0,0,0,1.73-1.8,4,4,0,0,0,.29-2.52A3.86,3.86,0,0,0,35,30.74a3.64,3.64,0,0,0-2.28-.9,3.06,3.06,0,0,0-1.24.14A2.63,2.63,0,0,0,30,31.24a2.77,2.77,0,0,0-.23,1.92A2.58,2.58,0,0,0,31.4,35a2.83,2.83,0,0,0,1.22.14,1.39,1.39,0,0,0,1.09-.76,1.42,1.42,0,0,0,0-1.33,1.34,1.34,0,0,0-1.06-.71c-.22,0-.35.09-.35.2s.16.19.32.2h0a.94.94,0,0,1,.68.56.93.93,0,0,1-.07.87.84.84,0,0,1-.71.41,2.28,2.28,0,0,1-1-.16,2,2,0,0,1-.64-3.26,1.89,1.89,0,0,1,.79-.48,1.77,1.77,0,0,1,.46-.08h.26l.25,0h0a2.88,2.88,0,0,1,1.78.77,3.13,3.13,0,0,1,1,1.72,3.16,3.16,0,0,1-.27,2,3.05,3.05,0,0,1-1.36,1.39,2.78,2.78,0,0,1-.93.28,5.79,5.79,0,0,1-1,0,4.17,4.17,0,0,1-3.26-2.27,4.44,4.44,0,0,1,0-4.06A4.33,4.33,0,0,1,32,28.11Z"/><path class="cls-2" d="M68.46,5.32a9.91,9.91,0,0,1,1.08-.09,9,9,0,0,1,1.07-.08,13.35,13.35,0,0,1,4,.57l.52.18a4.79,4.79,0,0,0,.51.22,4.18,4.18,0,0,1,.86.62,6.45,6.45,0,0,1,1.33,1.45,6.76,6.76,0,0,1,1.28,3.18,3.92,3.92,0,0,1-.51,3,3.81,3.81,0,0,1-.9.89l-.47.22-.48.13a2.53,2.53,0,0,1-.77.13.84.84,0,0,0,.48.27,1.48,1.48,0,0,0,.94-.05,3.68,3.68,0,0,0,1.16-.57,4.2,4.2,0,0,0,1.11-1,4.42,4.42,0,0,0,.64-1.41,3.72,3.72,0,0,0,0-.84l-.13-1a11.66,11.66,0,0,0-.64-2,8.82,8.82,0,0,0-2.91-3.54,13.1,13.1,0,0,0-2.23-1.32,23.33,23.33,0,0,0-2.49-.89,18.21,18.21,0,0,0-5.62-.44,18.15,18.15,0,0,0-10,4,27.19,27.19,0,0,0-3.47,3.49c-.12.15-.58.75-1.38,1.81l-1.15,1.73c-.78,1.23-1.83,3.12-3.18,5.65-.11.24-.21.45-.3.62l1.25.44a9.2,9.2,0,0,1,2,1.11c.43.38.59.65.47.79s-.31.15-.86.09c-.34-.06-1-.19-2-.4L46.25,22l-1.58-.13c-1.32-.09-2.42-.13-3.3-.13h-.18c-.91,0-2,0-3.34.13L36.31,22l-1.42.22-2,.4q-.81.09-.9-.09c-.08-.14.09-.41.52-.79a7.94,7.94,0,0,1,1.93-1.11l1.28-.44c-.11-.18-.22-.38-.34-.62-1.31-2.53-2.36-4.41-3.13-5.65L31,12.21c-.77-1.06-1.23-1.66-1.37-1.81a25.93,25.93,0,0,0-3.43-3.49,16.73,16.73,0,0,0-4.55-2.69,16.58,16.58,0,0,0-5.44-1.33,18.54,18.54,0,0,0-5.66.44,23.33,23.33,0,0,0-2.49.89A14.84,14.84,0,0,0,5.86,5.54,8.35,8.35,0,0,0,3,9.08a11.72,11.72,0,0,0-.65,2l-.12,1a3.72,3.72,0,0,0,0,.84,3.41,3.41,0,0,0,.64,1.41,4.17,4.17,0,0,0,1.07,1,4.36,4.36,0,0,0,1.2.57,1.46,1.46,0,0,0,.94.05.81.81,0,0,0,.47-.27,2.73,2.73,0,0,1-.81-.13l-.47-.13a3.23,3.23,0,0,0-.43-.22,3.5,3.5,0,0,1-.94-.89,3.87,3.87,0,0,1-.52-3A7.29,7.29,0,0,1,4.7,8.19,5.52,5.52,0,0,1,6,6.74a6.29,6.29,0,0,1,.86-.62,2.65,2.65,0,0,0,.51-.22l.52-.18A13.43,13.43,0,0,1,12,5.15,9,9,0,0,1,13,5.23a9.21,9.21,0,0,1,3.22.67,17,17,0,0,1,7,4.55,14.34,14.34,0,0,1,3.51,6,15.53,15.53,0,0,1,.82,5.48c0,.35,0,.82,0,1.41a.17.17,0,0,0-.13.05.2.2,0,0,0-.13,0c-.25.06-.57.15-.94.27a15.3,15.3,0,0,1-5.27.17l-1.5-.17-1.67-.27a14.41,14.41,0,0,1-1.81-.4c-.54-.14-.84-.22-.9-.22l-1.58-.57-2.06-1.33-.35-.13-.17,0-.21.53L10.7,23a5.65,5.65,0,0,0,.52,1.86,8.45,8.45,0,0,0,.9,1.63,12.23,12.23,0,0,0,2.66,2.61,14.32,14.32,0,0,0,5.74,2.69,11.59,11.59,0,0,0,3.56.4l.13,2.92c0,.26.07,1.15.13,2.65l.25,2.92.09.39a6.36,6.36,0,0,1,.17.93l.3.93A10.48,10.48,0,0,0,26,44.69a18.13,18.13,0,0,0,1.24,1.81l1.55,1.94a14.09,14.09,0,0,1,1.5,2.39c.09.17.27.63.56,1.37L31,53a1.88,1.88,0,0,1,.17.75c.09.56.19,1.54.3,2.92.09,1.06.19,2,.3,2.83A7.39,7.39,0,0,0,33.69,64a16.5,16.5,0,0,0,2,1.55,5.2,5.2,0,0,1,.65.48c.16.24.27.39.29.44l.3.44a4.27,4.27,0,0,1,.26,1.82A7,7,0,0,1,37,70.09l-.3,1.15a3.63,3.63,0,0,0,0,1.81,4,4,0,0,0,1,1.46L39,75.92a14.52,14.52,0,0,1,2.23,2.83,15.27,15.27,0,0,1,2.31-2.83l1.33-1.41a4.53,4.53,0,0,0,1-1.46,4.32,4.32,0,0,0,0-1.81l-.25-1.15a12.41,12.41,0,0,1-.26-1.41,4.27,4.27,0,0,1,.26-1.82l.3-.44a5,5,0,0,1,.34-.44,4.28,4.28,0,0,1,.64-.48,17.82,17.82,0,0,0,2-1.55,7.7,7.7,0,0,0,1.88-4.46c.09-.83.18-1.77.26-2.83.11-1.38.21-2.36.3-2.92a4.31,4.31,0,0,1,.17-.75l.17-.79a11.41,11.41,0,0,1,.6-1.37,14.76,14.76,0,0,1,1.5-2.39c.72-.88,1.22-1.53,1.51-1.94a15.09,15.09,0,0,0,1.28-1.81,10.11,10.11,0,0,0,.86-1.77l.26-.93c.08-.41.14-.72.17-.93l.13-.39.25-2.92a25.53,25.53,0,0,1,.13-2.65l.09-2.92a11.87,11.87,0,0,0,3.6-.4,14.42,14.42,0,0,0,5.75-2.69,11.32,11.32,0,0,0,2.61-2.61,7.35,7.35,0,0,0,1-1.63A6.69,6.69,0,0,0,71.81,23l0-.22v-.66l-.13-.89-.17-.53v0l0,0-.18,0-.29.13L69,22.2l-1.59.57c-.06,0-.37.08-.94.22a12.72,12.72,0,0,1-1.76.4L63,23.66l-1.5.17a15.1,15.1,0,0,1-5.23-.17c-.37-.12-.69-.21-.94-.27a.3.3,0,0,0-.13,0A.36.36,0,0,0,55,23.3,8.73,8.73,0,0,0,55,21.89a17,17,0,0,1,.82-5.48,14.89,14.89,0,0,1,3.51-6,16.89,16.89,0,0,1,7-4.55,8.79,8.79,0,0,1,2.14-.58Zm4-4.2a19.5,19.5,0,0,1,2.91,1.06,26.69,26.69,0,0,1,2.53,1.55,10.77,10.77,0,0,1,3.35,4.55,9.58,9.58,0,0,1,.64,2.48L82,12a3.63,3.63,0,0,1-.13,1.28,4.47,4.47,0,0,1-1.11,2,5.75,5.75,0,0,1-1.5,1.23,5.42,5.42,0,0,1-1.67.53,2.07,2.07,0,0,1-1.46-.26,1.62,1.62,0,0,1-.86-.89,3,3,0,0,0-.17-.53v0a8.2,8.2,0,0,0,1.37-.66,2.62,2.62,0,0,0,1.08-1.06,3.22,3.22,0,0,0,0-2,6.06,6.06,0,0,0-1.21-2.29,4.73,4.73,0,0,0-1.07-1L74.72,8l-.64-.18a12.18,12.18,0,0,0-3.39-.35l-.94.09-.94.08c-.49.09-1.1.24-1.85.44A16.41,16.41,0,0,0,60.79,12a15.45,15.45,0,0,0-3.6,4.9A13.92,13.92,0,0,0,56,21c0,.32-.07.7-.13,1.14a1.32,1.32,0,0,0,0,.49,8,8,0,0,1,1,.05,16.32,16.32,0,0,0,4.33-.54l1.5-.35a12,12,0,0,0,1.54-.35c.77-.18,1.32-.33,1.63-.44a6.66,6.66,0,0,0,.86-.31l1-.36v0l.13-.05L70,18.84l.94-.4.47-.09a2.07,2.07,0,0,1,1.85.76,2.55,2.55,0,0,0,.3.44L74,20.61,74.13,23l0,.31a8.68,8.68,0,0,1-.21,1.24c-.17.53-.32.94-.43,1.24a11.7,11.7,0,0,1-1.24,2.07,13.71,13.71,0,0,1-3.22,3,15,15,0,0,1-6.65,2.56,18.78,18.78,0,0,1-2.44.23,60.54,60.54,0,0,1-.43,7.46v.18q0,.57-.09.84a1.15,1.15,0,0,0,0,.22l-.25,1.1a11.82,11.82,0,0,1-.91,2.21,14.4,14.4,0,0,1-1.28,2.08c-.32.44-.79,1.1-1.41,2a9.88,9.88,0,0,0-1.94,4.33c0,.5-.13,1.41-.21,2.74s-.22,2.22-.3,3a15.17,15.17,0,0,1-.77,3.09,7.51,7.51,0,0,1-1.85,2.78,14.44,14.44,0,0,1-1.15,1c-.29.15-.66.37-1.12.67s-.49.41-.52.53a1.51,1.51,0,0,0-.12.7,4.14,4.14,0,0,0,.17,1.06l.21,1.29A10.06,10.06,0,0,1,48,72.26a5.33,5.33,0,0,1-.3,1.5,6.42,6.42,0,0,1-1.5,2c-.23.24-.73.69-1.5,1.37a17.34,17.34,0,0,0-2.36,2.3c-.14.23-.34.6-.6,1.1q-.51,1.29-.9,0a6.67,6.67,0,0,0-.6-1.1,17.63,17.63,0,0,0-2.32-2.3c-.77-.68-1.27-1.13-1.5-1.37a5.94,5.94,0,0,1-1.54-2,4.42,4.42,0,0,1-.26-1.5,10.06,10.06,0,0,1,.09-1.37l.21-1.29c.09-.44.14-.79.17-1.06a1.51,1.51,0,0,0-.12-.7,2,2,0,0,0-.52-.53c-.46-.3-.83-.52-1.11-.67-.46-.35-.86-.67-1.21-1a7.08,7.08,0,0,1-1.79-2.78,12.47,12.47,0,0,1-.78-3.09c-.11-.74-.21-1.73-.3-3S29.06,54.6,29,54.1a9.51,9.51,0,0,0-1.89-4.33l-1.41-2a17.62,17.62,0,0,1-1.33-2.08,10.9,10.9,0,0,1-.9-2.21l-.22-1.1a.93.93,0,0,1-.08-.22,5.48,5.48,0,0,1,0-.84v-.18a55.72,55.72,0,0,1-.47-7.46,18.92,18.92,0,0,1-2.4-.23,15,15,0,0,1-6.69-2.56,13.82,13.82,0,0,1-3.17-3,9,9,0,0,1-1.25-2.07,7.52,7.52,0,0,1-.43-1.24,5.55,5.55,0,0,1-.25-1.24l0-1.32.17-1.37L8.78,20l.21-.4a4.66,4.66,0,0,1,.3-.44,2,2,0,0,1,1.85-.76l.42.09.95.4,2.14,1.41.09.05,0,0,1,.35a3.58,3.58,0,0,0,.81.32c.32.11.86.26,1.63.44a12.73,12.73,0,0,0,1.59.35l1.46.35a15.84,15.84,0,0,0,4.33.53c.26,0,.6,0,1,0v-.49c-.06-.44-.12-.82-.17-1.15a12.81,12.81,0,0,0-1.16-4.06A14.87,14.87,0,0,0,21.77,12,16.82,16.82,0,0,0,15.55,8.1c-.74-.2-1.36-.35-1.84-.44l-1.85-.17a11.91,11.91,0,0,0-3.38.35L7.79,8l-.56.39a5.85,5.85,0,0,0-1,1A5.72,5.72,0,0,0,5,11.68a3,3,0,0,0,0,2,2.32,2.32,0,0,0,1,1.06,12.08,12.08,0,0,0,1.37.66v0c0,.12-.07.3-.12.53a1.86,1.86,0,0,1-.86.89,2.22,2.22,0,0,1-1.5.26,5.11,5.11,0,0,1-1.63-.53A5.4,5.4,0,0,1,1.74,15.3a5,5,0,0,1-1.11-2A6,6,0,0,1,.5,12l.13-1.24a10,10,0,0,1,.6-2.47A10.47,10.47,0,0,1,4.62,3.73,22.77,22.77,0,0,1,7.15,2.18a19.09,19.09,0,0,1,2.91-1.06,19.31,19.31,0,0,1,6.3-.57,17.72,17.72,0,0,1,6.18,1.5A18,18,0,0,1,27.6,5.23a26.46,26.46,0,0,1,3.56,3.93,22.87,22.87,0,0,1,1.37,2l.56,1a5.49,5.49,0,0,1,.51,1,31.2,31.2,0,0,1,2.57,6.1c.09.29.16.54.22.75q.47-.14,1.2-.27a21.33,21.33,0,0,1,3.6-.31h.17a20.59,20.59,0,0,1,3.56.31,9.39,9.39,0,0,1,1.2.27c.06-.21.13-.46.22-.75a36.16,36.16,0,0,1,2.57-6.1c.09-.18.26-.5.52-1l.6-1c.59-1,1-1.65,1.33-2A24.54,24.54,0,0,1,55,5.23a18.06,18.06,0,0,1,5-3.18A17.66,17.66,0,0,1,66.19.55a19.4,19.4,0,0,1,6.31.57Z"/><path class="cls-3" d="M50.87,28.11c.18,0,.33-.11.33-.22s-.15-.19-.35-.19H50.8a4.64,4.64,0,0,0-2.21.73A5,5,0,0,0,47,30.17a5.21,5.21,0,0,0-.62,2.35,5,5,0,0,0,.54,2.38,4.91,4.91,0,0,0,1.59,1.85,4.84,4.84,0,0,0,2.25.85,6.12,6.12,0,0,0,1.21,0,3.68,3.68,0,0,0,1.19-.38,3.87,3.87,0,0,0,1.73-1.8,4.11,4.11,0,0,0,.29-2.52,3.92,3.92,0,0,0-1.27-2.16,3.66,3.66,0,0,0-2.28-.9,3.06,3.06,0,0,0-1.24.14,2.63,2.63,0,0,0-1.43,1.26,2.78,2.78,0,0,0-.24,1.92A2.62,2.62,0,0,0,50.32,35a2.81,2.81,0,0,0,1.22.14,1.42,1.42,0,0,0,1.09-.76,1.45,1.45,0,0,0,0-1.33,1.34,1.34,0,0,0-1.07-.71c-.22,0-.34.09-.35.2s.16.19.32.2h.05a.93.93,0,0,1,.67.56,1,1,0,0,1-.06.87.87.87,0,0,1-.72.41,2.31,2.31,0,0,1-1-.16A2,2,0,0,1,49.31,33a2.06,2.06,0,0,1,.53-1.79,2,2,0,0,1,.8-.48,1.7,1.7,0,0,1,.45-.08h.26l.26,0h0a2.85,2.85,0,0,1,1.77.77,3.15,3.15,0,0,1,.69,3.68,3,3,0,0,1-1.37,1.39,2.71,2.71,0,0,1-.93.28,5.79,5.79,0,0,1-1,0,4.17,4.17,0,0,1-3.26-2.27,4.44,4.44,0,0,1,0-4.06,4.31,4.31,0,0,1,3.36-2.31Z"/><path class="cls-4" d="M44.73,45.08a2.94,2.94,0,0,0-2-1.06,9.19,9.19,0,0,0-3,0,2.78,2.78,0,0,0-2,1.09,1.83,1.83,0,0,0,.62,1.15,3.79,3.79,0,0,0,5.66,0,1.9,1.9,0,0,0,.62-1.18Z"/><path class="cls-5" d="M48.62,56.17H33.93a.49.49,0,0,0,0,1h6.86v2a2.94,2.94,0,1,0,5.87,0v-2h2a.49.49,0,0,0,0-1Zm-2.93,2.94a2,2,0,0,1-3.92,0v-2h1.47v2a.49.49,0,1,0,1,0v-2h1.47Z"/><path class="cls-6" d="M82.56,29.27h7.73l5.33,15.12h.07l5.36-15.12h7.69V52.44h-5.1V34.67h-.07L97.49,52.44h-3.9L87.73,34.67h-.06V52.44H82.56Z"/><path class="cls-7" d="M121.08,29.27h4.22l10.08,23.17h-5.76l-2-4.91h-9l-1.93,4.91h-5.63ZM123,36l-2.81,7.2h5.66Z"/><path class="cls-8" d="M137.7,29.26c8.63-.54,21.9-.2,21.37,11.65.25,11.46-12.89,12.16-21.37,11.51Zm5.11,18.45c14.66,2.24,14.61-16,0-13.74Z"/><path class="cls-9" d="M194.64,50.8a18.58,18.58,0,0,1-4.71,1.7,23.94,23.94,0,0,1-5,.53,14.15,14.15,0,0,1-5-.86,11.41,11.41,0,0,1-4-2.43,11.08,11.08,0,0,1-2.61-3.85,14.12,14.12,0,0,1,0-10.08A11,11,0,0,1,176,32a11.43,11.43,0,0,1,4-2.44,14.15,14.15,0,0,1,5-.85,18.39,18.39,0,0,1,5.12.67,10.1,10.1,0,0,1,4.11,2.31l-3.6,3.92A7.1,7.1,0,0,0,188.19,34a8.38,8.38,0,0,0-3.27-.56,7.58,7.58,0,0,0-3,.56,6.69,6.69,0,0,0-2.27,1.55,6.84,6.84,0,0,0-1.46,2.37,8.52,8.52,0,0,0-.51,3,8.41,8.41,0,0,0,.51,3A6.72,6.72,0,0,0,182,47.76a7.58,7.58,0,0,0,3,.55,9.78,9.78,0,0,0,2.88-.37,10.83,10.83,0,0,0,1.93-.77V43.4h-4.15V38.69h9.06Z"/><path class="cls-10" d="M197.88,40.85a13.15,13.15,0,0,1,.93-5A11,11,0,0,1,201.42,32a11.43,11.43,0,0,1,4-2.44,15.16,15.16,0,0,1,10,0,11.43,11.43,0,0,1,4,2.44,11,11,0,0,1,2.6,3.84,14.12,14.12,0,0,1,0,10.08,11.06,11.06,0,0,1-2.6,3.85,11.41,11.41,0,0,1-4,2.43,15,15,0,0,1-10,0,11.41,11.41,0,0,1-4-2.43,11.08,11.08,0,0,1-2.61-3.85A13.08,13.08,0,0,1,197.88,40.85Zm5.3,0a8.41,8.41,0,0,0,.51,3,6.72,6.72,0,0,0,3.73,3.92,8.24,8.24,0,0,0,5.92,0,6.76,6.76,0,0,0,2.28-1.56,6.69,6.69,0,0,0,1.45-2.36,8.41,8.41,0,0,0,.51-3,8.52,8.52,0,0,0-.51-3,6.82,6.82,0,0,0-1.45-2.37A6.73,6.73,0,0,0,213.34,34a8.1,8.1,0,0,0-5.92,0,6.69,6.69,0,0,0-2.27,1.55,6.84,6.84,0,0,0-1.46,2.37A8.52,8.52,0,0,0,203.18,40.85Z"/><path class="cls-11" d="M234,29.27h4.22l10.08,23.17h-5.76l-2-4.91h-9l-1.93,4.91H224Zm2,6.74-2.82,7.2h5.67Z"/><path class="cls-12" d="M252.07,33.78h-6.61V29.27h18.32v4.51h-6.6V52.44h-5.11Z"/></g></g></svg>