<svg xmlns="http://www.w3.org/2000/svg" xmlns:xlink="http://www.w3.org/1999/xlink" viewBox="0 0 187.25 250.45"><defs><style>.cls-1,.cls-10,.cls-11,.cls-12,.cls-2,.cls-3,.cls-4,.cls-5,.cls-6,.cls-7,.cls-8,.cls-9{stroke:#008ad7;stroke-miterlimit:10;}.cls-1,.cls-3{stroke-width:0;}.cls-1{fill:url(#linear-gradient);}.cls-2{fill-rule:evenodd;fill:url(#linear-gradient-2);}.cls-3{fill:url(#linear-gradient-3);}.cls-4{fill:url(#linear-gradient-4);}.cls-5{fill:url(#linear-gradient-5);}.cls-10,.cls-11,.cls-12,.cls-6,.cls-7,.cls-8,.cls-9{stroke-width:1.5px;}.cls-6{fill:url(#linear-gradient-6);}.cls-7{fill:url(#linear-gradient-7);}.cls-8{fill:url(#linear-gradient-8);}.cls-9{fill:url(#linear-gradient-9);}.cls-10{fill:url(#linear-gradient-10);}.cls-11{fill:url(#linear-gradient-11);}.cls-12{fill:url(#linear-gradient-12);}</style><linearGradient id="linear-gradient" x1="62.01" y1="105.88" x2="82.31" y2="105.88" gradientUnits="userSpaceOnUse"><stop offset="0" stop-color="#fabc05"/><stop offset="0.49" stop-color="#ea4335"/><stop offset="1" stop-color="#4284f3"/></linearGradient><linearGradient id="linear-gradient-2" x1="0.5" y1="124.58" x2="186.75" y2="124.58" xlink:href="#linear-gradient"/><linearGradient id="linear-gradient-3" x1="105.23" y1="105.88" x2="125.52" y2="105.88" xlink:href="#linear-gradient"/><linearGradient id="linear-gradient-4" x1="85.79" y1="135.69" x2="101.55" y2="135.69" xlink:href="#linear-gradient"/><linearGradient id="linear-gradient-5" x1="75.77" y1="166.29" x2="111.56" y2="166.29" xlink:href="#linear-gradient"/><linearGradient id="linear-gradient-6" x1="55.37" y1="12.48" x2="81.54" y2="12.48" gradientUnits="userSpaceOnUse"><stop offset="0" stop-color="#fabc05"/><stop offset="1" stop-color="#f9b807"/><stop offset="1" stop-color="#ea4335"/><stop offset="1" stop-color="#4284f3"/></linearGradient><linearGradient id="linear-gradient-7" x1="83.87" y1="12.48" x2="108.18" y2="12.48" xlink:href="#linear-gradient-6"/><linearGradient id="linear-gradient-8" x1="110.5" y1="12.49" x2="131.89" y2="12.49" xlink:href="#linear-gradient-6"/><linearGradient id="linear-gradient-9" x1="47.94" y1="237.53" x2="70.16" y2="237.53" xlink:href="#linear-gradient-6"/><linearGradient id="linear-gradient-10" x1="73.4" y1="237.53" x2="98.4" y2="237.53" xlink:href="#linear-gradient-6"/><linearGradient id="linear-gradient-11" x1="99.48" y1="237.53" x2="123.8" y2="237.53" xlink:href="#linear-gradient-6"/><linearGradient id="linear-gradient-12" x1="120.98" y1="237.53" x2="139.31" y2="237.53" xlink:href="#linear-gradient-6"/></defs><g id="Layer_2" data-name="Layer 2"><g id="Layer_1-2" data-name="Layer 1"><path class="cls-1" d="M72.38,95.48c.4,0,.73-.26.73-.51s-.34-.44-.79-.43H72.2a10.48,10.48,0,0,0-5,1.66,11.34,11.34,0,0,0-3.72,4,11.75,11.75,0,0,0-.2,10.82,11.34,11.34,0,0,0,3.64,4.22A10.84,10.84,0,0,0,72,117.14a12.73,12.73,0,0,0,2.76,0,8,8,0,0,0,2.72-.85,8.87,8.87,0,0,0,4-4.12,9.2,9.2,0,0,0,.66-5.76,9,9,0,0,0-2.89-4.94A8.45,8.45,0,0,0,74,99.41a7,7,0,0,0-2.83.34,6,6,0,0,0-3.26,2.87,6.3,6.3,0,0,0-.54,4.39,5.94,5.94,0,0,0,3.74,4.23,6.43,6.43,0,0,0,2.78.31,3.2,3.2,0,0,0,2.49-1.74,3.33,3.33,0,0,0,0-3,3,3,0,0,0-2.44-1.61c-.51,0-.78.2-.8.44s.37.44.74.48a.14.14,0,0,1,.09,0,2.1,2.1,0,0,1,1.55,1.27,2.14,2.14,0,0,1-.15,2,2,2,0,0,1-1.64,1,5.09,5.09,0,0,1-2.21-.38A4.62,4.62,0,0,1,70,102.47a4.43,4.43,0,0,1,1.81-1.11,4.11,4.11,0,0,1,1-.17h.59c.22,0,.39,0,.59,0h0a6.6,6.6,0,0,1,4,1.76,7.07,7.07,0,0,1,2.18,3.93,7.27,7.27,0,0,1-.6,4.48,6.89,6.89,0,0,1-3.12,3.17,6.68,6.68,0,0,1-2.13.66,15.23,15.23,0,0,1-2.34,0A9.57,9.57,0,0,1,64.65,110a10.09,10.09,0,0,1,0-9.26,9.8,9.8,0,0,1,7.69-5.27Z"/><path class="cls-2" d="M155.77,43.4a24.24,24.24,0,0,1,2.46-.2,23.68,23.68,0,0,1,2.45-.2,30.33,30.33,0,0,1,9.2,1.31l1.18.41a8.93,8.93,0,0,0,1.18.5,10.34,10.34,0,0,1,2,1.41,15,15,0,0,1,3,3.34,15.23,15.23,0,0,1,2.93,7.26A8.94,8.94,0,0,1,179,64a8.81,8.81,0,0,1-2.06,2c-.46.2-.82.36-1.08.5l-1.08.3a6.07,6.07,0,0,1-1.76.3,2,2,0,0,0,1.08.61,3.46,3.46,0,0,0,2.16-.1,9,9,0,0,0,2.64-1.31A9.59,9.59,0,0,0,181.45,64a10,10,0,0,0,1.46-3.23,8.22,8.22,0,0,0,0-1.91l-.29-2.33A26,26,0,0,0,181.15,52a19.93,19.93,0,0,0-6.66-8.07,29.43,29.43,0,0,0-5.09-3,52.29,52.29,0,0,0-5.69-2,41.1,41.1,0,0,0-12.83-1A41.33,41.33,0,0,0,128.05,47a62.67,62.67,0,0,0-7.93,8c-.27.34-1.31,1.72-3.14,4.14l-2.64,3.94q-2.66,4.25-7.25,12.92l-.68,1.41,2.84,1A20.27,20.27,0,0,1,113.76,81c1,.87,1.33,1.48,1.07,1.81-.07.27-.72.34-2,.21-.78-.14-2.32-.44-4.6-.91L105,81.56c-.71-.07-1.92-.17-3.62-.3Q96.9,81,93.87,81h-.4c-2.09,0-4.63.1-7.64.3l-3.52.3-3.24.51-4.6.91c-1.24.13-1.93.06-2.06-.21s.19-.94,1.17-1.81A18.23,18.23,0,0,1,78,78.43l2.94-1A12.74,12.74,0,0,1,80.15,76Q75.63,67.32,73,63.09l-2.75-3.94Q67.6,55.52,67.12,55a58.32,58.32,0,0,0-7.84-8A37.74,37.74,0,0,0,48.9,40.88a38.17,38.17,0,0,0-12.44-3,42,42,0,0,0-12.94,1,52.78,52.78,0,0,0-5.68,2,34.73,34.73,0,0,0-5.09,3A19.17,19.17,0,0,0,6.19,52a26.06,26.06,0,0,0-1.48,4.54l-.29,2.33a9.58,9.58,0,0,0,0,1.91A8,8,0,0,0,5.89,64a10.11,10.11,0,0,0,2.45,2.33,10.23,10.23,0,0,0,2.74,1.31,3.44,3.44,0,0,0,2.16.1,1.93,1.93,0,0,0,1.07-.61,6.38,6.38,0,0,1-1.86-.3l-1.08-.3a5.33,5.33,0,0,0-1-.5,7.92,7.92,0,0,1-2.15-2,8.94,8.94,0,0,1-1.18-6.77,16.36,16.36,0,0,1,3-7.26A13.36,13.36,0,0,1,13,46.63a16.79,16.79,0,0,1,2-1.41,4.77,4.77,0,0,0,1.17-.5l1.18-.41A30.75,30.75,0,0,1,26.66,43a23.89,23.89,0,0,1,2.45.2,23.89,23.89,0,0,1,2.45.2,22.31,22.31,0,0,1,4.89,1.32,38.76,38.76,0,0,1,16,10.39,32.84,32.84,0,0,1,8,13.63c1.49,5,2.12,9.15,1.86,12.52-.07.81-.1,1.88-.1,3.22a.39.39,0,0,0-.3.11.42.42,0,0,0-.3.1c-.58.13-1.3.33-2.15.6a34.9,34.9,0,0,1-12,.41L44,85.29c-2.22-.33-3.49-.54-3.82-.6a34.31,34.31,0,0,1-4.11-.91A20.47,20.47,0,0,0,34,83.27L30.37,82l-4.69-3-.79-.3-.39-.11L24,79.74l-.2,4A12.68,12.68,0,0,0,25,88,18.83,18.83,0,0,0,27,91.75a27.34,27.34,0,0,0,6.08,6,32.67,32.67,0,0,0,13.13,6.16,27,27,0,0,0,8.13.91l.29,6.66c.07.61.16,2.63.3,6.06l.58,6.66.2.91a17.76,17.76,0,0,1,.39,2.12l.69,2.12a22.13,22.13,0,0,0,2,4,38.66,38.66,0,0,0,2.84,4.14c.72.94,1.9,2.42,3.52,4.44a32.24,32.24,0,0,1,3.44,5.45c.19.4.62,1.45,1.26,3.13l.4,1.82a4.16,4.16,0,0,1,.39,1.71q.3,1.92.69,6.67.3,3.63.68,6.46,1.08,7.26,4.31,10.19a37.5,37.5,0,0,0,4.51,3.53A12.57,12.57,0,0,1,82.3,182c.39.54.62.88.69,1l.68,1a9.6,9.6,0,0,1,.59,4.14,15.38,15.38,0,0,1-.49,3.23L83.09,194a8.58,8.58,0,0,0,0,4.13,9,9,0,0,0,2.25,3.34l3.13,3.22a33.06,33.06,0,0,1,5.1,6.47,35.7,35.7,0,0,1,5.28-6.47l3-3.22a10.28,10.28,0,0,0,2.35-3.34,9.87,9.87,0,0,0-.1-4.13l-.59-2.63a27.42,27.42,0,0,1-.58-3.23,10.09,10.09,0,0,1,.58-4.14l.69-1a9,9,0,0,1,.79-1,13.35,13.35,0,0,1,1.46-1.11,36.67,36.67,0,0,0,4.51-3.53q3.14-2.92,4.31-10.19c.19-1.89.4-4,.59-6.46q.39-4.75.68-6.67a9.46,9.46,0,0,1,.39-1.71l.4-1.82a23.49,23.49,0,0,1,1.37-3.13,32.14,32.14,0,0,1,3.43-5.45q2.44-3,3.43-4.44a33.71,33.71,0,0,0,2.94-4.14,22.8,22.8,0,0,0,2-4l.59-2.12c.19-.94.32-1.65.39-2.12l.29-.91.58-6.66a54.16,54.16,0,0,1,.3-6.06l.2-6.66a27.91,27.91,0,0,0,8.23-.91,32.74,32.74,0,0,0,13.13-6.16,25.77,25.77,0,0,0,6-6A17.32,17.32,0,0,0,162.34,88a14.33,14.33,0,0,0,1.08-4.23l.1-.51V81.76l-.3-2-.39-1.22v-.09l-.1.09-.4.11-.68.3L157,82l-3.63,1.31c-.13,0-.84.17-2.15.51a30.08,30.08,0,0,1-4,.91c-.4.06-1.7.27-3.93.6l-3.42.41a34.4,34.4,0,0,1-12-.41q-1.27-.41-2.16-.6a.66.66,0,0,0-.29-.1.76.76,0,0,0-.29-.11,21,21,0,0,0-.2-3.22,38.35,38.35,0,0,1,1.86-12.52,34.27,34.27,0,0,1,8-13.63,38.7,38.7,0,0,1,16.07-10.39,20.74,20.74,0,0,1,4.9-1.32ZM165,33.81a41.86,41.86,0,0,1,6.66,2.43,55,55,0,0,1,5.78,3.53,24.41,24.41,0,0,1,7.64,10.4,20.79,20.79,0,0,1,1.47,5.65l.19,2.83a8.62,8.62,0,0,1-.29,2.92,10.24,10.24,0,0,1-2.55,4.64A13,13,0,0,1,180.47,69a13.56,13.56,0,0,1-3.83,1.22,4.74,4.74,0,0,1-3.33-.61,3.65,3.65,0,0,1-2-2,5.72,5.72,0,0,0-.39-1.21v-.1a18.24,18.24,0,0,0,3.14-1.52,5.88,5.88,0,0,0,2.45-2.42,7.41,7.41,0,0,0,0-4.44,13.72,13.72,0,0,0-2.75-5.25,11.18,11.18,0,0,0-2.45-2.22l-1.27-.91-1.47-.4a28,28,0,0,0-7.74-.81l-2.15.2c-1.38.14-2.09.2-2.16.2-1.11.2-2.51.54-4.21,1a37.57,37.57,0,0,0-14.11,9A35.68,35.68,0,0,0,130,70a32,32,0,0,0-2.64,9.29c-.07.74-.17,1.61-.29,2.62a2.91,2.91,0,0,0,0,1.11,20.49,20.49,0,0,1,2.24.1,36.87,36.87,0,0,0,9.9-1.21l3.44-.81a24.61,24.61,0,0,0,3.52-.81,34.53,34.53,0,0,0,3.72-1,12.81,12.81,0,0,0,2-.71l2.34-.81v-.1l.3-.1,4.79-3.23,2.16-.91,1.08-.2a4.66,4.66,0,0,1,4.21,1.72,6.07,6.07,0,0,0,.68,1l1,2.42.3,5.45-.1.71a19.28,19.28,0,0,1-.49,2.82c-.4,1.21-.72,2.15-1,2.83a27.67,27.67,0,0,1-2.84,4.74,31.43,31.43,0,0,1-7.35,7,34.68,34.68,0,0,1-15.19,5.85,43.23,43.23,0,0,1-5.58.51,137.68,137.68,0,0,1-1,17.05v.41c-.06.87-.12,1.51-.19,1.91a2,2,0,0,0-.1.51l-.58,2.52a28.46,28.46,0,0,1-2.06,5,33.79,33.79,0,0,1-2.94,4.75c-.72,1-1.8,2.52-3.23,4.54q-3.82,5.34-4.41,9.89c-.13,1.14-.3,3.23-.49,6.26-.26,2.83-.5,5.08-.69,6.76a34.8,34.8,0,0,1-1.76,7.07,17.57,17.57,0,0,1-4.21,6.36c-.72.67-1.6,1.41-2.65,2.22-.65.33-1.5.84-2.54,1.51-.73.54-1.12.94-1.19,1.21a3.48,3.48,0,0,0-.28,1.62,9.8,9.8,0,0,0,.39,2.42l.49,2.93a24.48,24.48,0,0,1,.19,3.13,11.74,11.74,0,0,1-.68,3.43,14.4,14.4,0,0,1-3.43,4.64c-.52.54-1.67,1.58-3.42,3.13a39,39,0,0,0-5.4,5.25c-.32.54-.78,1.38-1.37,2.52q-1.17,2.94-2.06,0a14.82,14.82,0,0,0-1.37-2.52,41.37,41.37,0,0,0-5.29-5.25c-1.76-1.54-2.9-2.59-3.43-3.13A13.89,13.89,0,0,1,79,199.76a10.25,10.25,0,0,1-.58-3.43,22.76,22.76,0,0,1,.2-3.13l.49-2.93c.19-1,.32-1.82.39-2.42a3.46,3.46,0,0,0-.29-1.62A5.11,5.11,0,0,0,78,185c-1-.67-1.9-1.18-2.55-1.51-1-.81-2-1.55-2.74-2.22a16.46,16.46,0,0,1-4.11-6.36,27.93,27.93,0,0,1-1.77-7.07q-.39-2.52-.68-6.76-.3-4.54-.59-6.26-.5-4.54-4.31-9.89c-1.43-2-2.51-3.54-3.23-4.54a43.18,43.18,0,0,1-3-4.75,27.69,27.69,0,0,1-2-5l-.5-2.52a2.91,2.91,0,0,1-.19-.51,12.49,12.49,0,0,1-.1-1.91v-.41a126.49,126.49,0,0,1-1.08-17.05,44.86,44.86,0,0,1-5.48-.51,34.62,34.62,0,0,1-15.29-5.85,32.28,32.28,0,0,1-7.25-7,20.55,20.55,0,0,1-2.84-4.74,16.13,16.13,0,0,1-1-2.83,13.83,13.83,0,0,1-.59-2.82l-.1-3,.39-3.13.49-1.52.49-.91c.4-.6.62-.94.69-1a4.55,4.55,0,0,1,4.21-1.71l1,.2,2.16.91,4.89,3.23.19.1.11.1,2.34.81a9,9,0,0,0,1.87.7,31.75,31.75,0,0,0,3.72,1,24,24,0,0,0,3.63.81l3.33.81a36.81,36.81,0,0,0,9.89,1.21c.59-.06,1.37-.1,2.35-.1V81.86c-.13-1-.26-1.88-.39-2.63A28.9,28.9,0,0,0,57.23,70a34.31,34.31,0,0,0-8.14-11.21,38.23,38.23,0,0,0-14.2-9c-1.7-.47-3.1-.81-4.22-1l-4.21-.4a27.75,27.75,0,0,0-7.73.8l-1.57.41-1.28.91a12,12,0,0,0-2.35,2.22,12.94,12.94,0,0,0-2.84,5.25,6.77,6.77,0,0,0,.1,4.44,5.14,5.14,0,0,0,2.35,2.42,26,26,0,0,0,3.13,1.51v.1c-.06.27-.16.68-.29,1.21a4.17,4.17,0,0,1-2,2,5,5,0,0,1-3.43.61A12.12,12.12,0,0,1,6.87,69a12.67,12.67,0,0,1-3.53-2.83A11.63,11.63,0,0,1,.79,61.57,14.78,14.78,0,0,1,.5,58.64l.29-2.82a23.51,23.51,0,0,1,9.12-16,54.55,54.55,0,0,1,5.77-3.54,42.54,42.54,0,0,1,6.66-2.42,44.25,44.25,0,0,1,14.4-1.31,40,40,0,0,1,14.11,3.43,41.45,41.45,0,0,1,11.56,7.26,61.14,61.14,0,0,1,8.13,9,46.09,46.09,0,0,1,3.14,4.64L75,59a12.25,12.25,0,0,1,1.17,2.22A73.28,73.28,0,0,1,82,75.19c.2.67.37,1.25.5,1.72.71-.2,1.63-.41,2.74-.61a47.41,47.41,0,0,1,8.22-.71h.4a45.88,45.88,0,0,1,8.13.71,22.84,22.84,0,0,1,2.74.61c.14-.47.3-1,.49-1.72a84.44,84.44,0,0,1,5.88-13.93c.2-.4.59-1.14,1.18-2.22l1.37-2.22q2.05-3.33,3-4.64a57.69,57.69,0,0,1,8.22-9,41.86,41.86,0,0,1,11.47-7.26,40.11,40.11,0,0,1,14.2-3.43A44.31,44.31,0,0,1,165,33.81Z"/><path class="cls-3" d="M115.59,95.48c.41,0,.74-.26.74-.51s-.34-.44-.79-.43h-.12a10.48,10.48,0,0,0-5,1.66,11.16,11.16,0,0,0-3.72,4,11.67,11.67,0,0,0-.2,10.82,11.4,11.4,0,0,0,3.63,4.22,10.84,10.84,0,0,0,5.15,1.93,12.64,12.64,0,0,0,2.75,0,7.92,7.92,0,0,0,2.72-.85,8.77,8.77,0,0,0,4-4.12,9.21,9.21,0,0,0,.67-5.76,9,9,0,0,0-2.9-4.94,8.41,8.41,0,0,0-5.21-2.06,7,7,0,0,0-2.83.34,6,6,0,0,0-3.27,2.87,6.36,6.36,0,0,0-.54,4.39,6,6,0,0,0,3.74,4.23,6.45,6.45,0,0,0,2.79.31,3.21,3.21,0,0,0,2.49-1.74,3.33,3.33,0,0,0,0-3,3,3,0,0,0-2.44-1.61c-.5,0-.78.2-.8.44s.37.44.74.48a.17.17,0,0,1,.1,0,2.07,2.07,0,0,1,1.54,1.27,2.14,2.14,0,0,1-.14,2,2,2,0,0,1-1.64,1,5.13,5.13,0,0,1-2.22-.38,4.62,4.62,0,0,1-1.46-7.43,4.4,4.4,0,0,1,1.82-1.11,4.11,4.11,0,0,1,1-.17h.59c.22,0,.39,0,.58,0h0a6.63,6.63,0,0,1,4.06,1.76,7.06,7.06,0,0,1,2.17,3.93,7.13,7.13,0,0,1-.6,4.48,6.89,6.89,0,0,1-3.12,3.17,6.68,6.68,0,0,1-2.13.66,15.1,15.1,0,0,1-2.33,0,9.57,9.57,0,0,1-7.45-5.21,10.12,10.12,0,0,1,0-9.26,9.82,9.82,0,0,1,7.69-5.27Z"/><path class="cls-4" d="M101.55,134.23a6.64,6.64,0,0,0-4.51-2.4,17.31,17.31,0,0,0-3.37-.29,18.15,18.15,0,0,0-3.38.29,6.27,6.27,0,0,0-4.5,2.48,4.29,4.29,0,0,0,1.4,2.63,8.68,8.68,0,0,0,13,0,4.33,4.33,0,0,0,1.41-2.71Z"/><path class="cls-5" d="M110.45,159.58H76.89a1.12,1.12,0,1,0,0,2.24H92.55v4.47a6.71,6.71,0,1,0,13.42,0v-4.47h4.48a1.12,1.12,0,0,0,0-2.24Zm-6.72,6.71a4.48,4.48,0,0,1-9,0v-4.47h3.36v4.47a1.12,1.12,0,0,0,2.24,0v-4.47h3.35Z"/><path class="cls-6" d="M55.37.9h7.72L68.42,16h.07L73.85.9h7.69V24.06h-5.1V6.3h-.07L70.29,24.06h-3.9L60.54,6.3h-.07V24.06h-5.1Z"/><path class="cls-7" d="M93.88.9H98.1l10.08,23.16h-5.76l-2-4.9h-9l-1.94,4.9H83.87Zm2,6.74L93,14.84h5.66Z"/><path class="cls-8" d="M110.5.9c8.63-.54,21.9-.2,21.37,11.65C132.12,24,119,24.71,110.5,24.06Zm5.11,18.45c14.66,2.24,14.61-16,0-13.74Z"/><path class="cls-9" d="M70.16,247.48a18.58,18.58,0,0,1-4.71,1.7,23.77,23.77,0,0,1-5,.52,14.2,14.2,0,0,1-5-.85,11.43,11.43,0,0,1-4-2.44,11,11,0,0,1-2.6-3.84,14,14,0,0,1,0-10.08,10.92,10.92,0,0,1,2.6-3.84,11.28,11.28,0,0,1,4-2.44,14.2,14.2,0,0,1,5-.85,18.44,18.44,0,0,1,5.12.67,9.86,9.86,0,0,1,4.1,2.3l-3.6,3.93a7.06,7.06,0,0,0-2.35-1.63,8.24,8.24,0,0,0-3.27-.56,7.45,7.45,0,0,0-3,.56,6.55,6.55,0,0,0-2.27,1.55,6.9,6.9,0,0,0-1.46,2.37,8.75,8.75,0,0,0-.5,3,8.64,8.64,0,0,0,.5,3,7,7,0,0,0,1.46,2.36,6.55,6.55,0,0,0,2.27,1.55,7.45,7.45,0,0,0,3,.56,9.69,9.69,0,0,0,2.87-.38,11.05,11.05,0,0,0,1.94-.76v-3.77H61.1v-4.71h9.06Z"/><path class="cls-10" d="M73.4,237.53a13.15,13.15,0,0,1,.94-5,10.92,10.92,0,0,1,2.6-3.84,11.28,11.28,0,0,1,4-2.44,15.16,15.16,0,0,1,10,0,11.28,11.28,0,0,1,4,2.44,10.92,10.92,0,0,1,2.6,3.84,14.12,14.12,0,0,1,0,10.08,11,11,0,0,1-2.6,3.84,11.43,11.43,0,0,1-4,2.44,15.16,15.16,0,0,1-10,0,11.43,11.43,0,0,1-4-2.44,11,11,0,0,1-2.6-3.84A13.15,13.15,0,0,1,73.4,237.53Zm5.3,0a8.41,8.41,0,0,0,.51,3,7,7,0,0,0,1.46,2.36,6.55,6.55,0,0,0,2.27,1.55,8.13,8.13,0,0,0,5.93,0,6.55,6.55,0,0,0,2.27-1.55,7,7,0,0,0,1.46-2.36,8.64,8.64,0,0,0,.5-3,8.75,8.75,0,0,0-.5-3,6.9,6.9,0,0,0-1.46-2.37,6.55,6.55,0,0,0-2.27-1.55,8.13,8.13,0,0,0-5.93,0,6.55,6.55,0,0,0-2.27,1.55,6.9,6.9,0,0,0-1.46,2.37A8.52,8.52,0,0,0,78.7,237.53Z"/><path class="cls-11" d="M109.5,226h4.22l10.08,23.16H118l-2-4.9h-9l-1.93,4.9H99.48Zm2,6.74-2.81,7.2h5.66Z"/><path class="cls-12" d="M127.59,230.46H121V226h18.33v4.51H132.7v18.65h-5.11Z"/></g></g></svg>